<svg xmlns="http://www.w3.org/2000/svg" version="1.1" xmlns:xlink="http://www.w3.org/1999/xlink" viewBox="0 0 200 200"><rect width="200" height="200" fill="url('#gradient')"></rect><defs><linearGradient id="gradient" gradientTransform="rotate(45 0.5 0.5)"><stop offset="0%" stop-color="#dee90b"></stop><stop offset="100%" stop-color="#d9e241"></stop></linearGradient></defs><g><g fill="#1b3855" transform="matrix(1.421235253296322,0,0,1.421235253296322,8.475141458011691,110.51948446370429)" stroke="#0e5278" stroke-width="0.2"><path d="M6.69-4.82L4.50-4.82L4.50 0L1.07 0L1.07-14.22L6.75-14.22Q8.38-14.22 9.63-13.62Q10.89-13.02 11.58-11.91Q12.27-10.80 12.27-9.39L12.27-9.39Q12.27-7.31 10.78-6.07Q9.29-4.82 6.69-4.82L6.69-4.82ZM4.50-11.57L4.50-7.47L6.75-7.47Q7.74-7.47 8.27-7.97Q8.79-8.47 8.79-9.38L8.79-9.38Q8.79-10.37 8.25-10.97Q7.71-11.56 6.79-11.57L6.79-11.57L4.50-11.57ZM23.81-2.54L23.81 0L13.89 0L13.89-2.15L18.46-6.95Q20.15-8.88 20.15-10.01L20.15-10.01Q20.15-10.93 19.75-11.41Q19.35-11.88 18.58-11.88L18.58-11.88Q17.83-11.88 17.36-11.25Q16.89-10.61 16.89-9.65L16.89-9.65L13.59-9.65Q13.59-10.96 14.25-12.07Q14.90-13.17 16.06-13.80Q17.23-14.42 18.66-14.42L18.66-14.42Q20.97-14.42 22.21-13.36Q23.46-12.29 23.46-10.30L23.46-10.30Q23.46-9.46 23.14-8.67Q22.83-7.87 22.17-7.00Q21.51-6.12 20.05-4.66L20.05-4.66L18.21-2.54L23.81-2.54ZM31.29-4.82L29.10-4.82L29.10 0L25.67 0L25.67-14.22L31.35-14.22Q32.98-14.22 34.23-13.62Q35.49-13.02 36.18-11.91Q36.87-10.80 36.87-9.39L36.87-9.39Q36.87-7.31 35.38-6.07Q33.89-4.82 31.29-4.82L31.29-4.82ZM29.10-11.57L29.10-7.47L31.35-7.47Q32.34-7.47 32.87-7.97Q33.39-8.47 33.39-9.38L33.39-9.38Q33.39-10.37 32.85-10.97Q32.31-11.56 31.39-11.57L31.39-11.57L29.10-11.57ZM52.63-8.30L52.63-5.66L47.10-5.66L47.10 0L43.67 0L43.67-14.22L53.18-14.22L53.18-11.57L47.10-11.57L47.10-8.30L52.63-8.30ZM57.93-10.57L57.93 0L54.63 0L54.63-10.57L57.93-10.57ZM54.43-13.29L54.43-13.29Q54.43-13.99 54.94-14.44Q55.45-14.89 56.26-14.89Q57.07-14.89 57.58-14.44Q58.09-13.99 58.09-13.29Q58.09-12.59 57.58-12.14Q57.07-11.69 56.26-11.69Q55.45-11.69 54.94-12.14Q54.43-12.59 54.43-13.29ZM63.43-15L63.43 0L60.13 0L60.13-15L63.43-15ZM70.57 0.20L70.57 0.20Q68.13 0.20 66.63-1.25Q65.13-2.71 65.13-5.03L65.13-5.03L65.13-5.30Q65.13-6.92 65.73-8.16Q66.33-9.40 67.48-10.08Q68.63-10.76 70.21-10.76L70.21-10.76Q72.44-10.76 73.73-9.38Q75.02-8.00 75.02-5.53L75.02-5.53L75.02-4.25L68.48-4.25Q68.65-3.36 69.25-2.85Q69.84-2.34 70.79-2.34L70.79-2.34Q72.35-2.34 73.23-3.44L73.23-3.44L74.74-1.66Q74.12-0.81 72.99-0.31Q71.87 0.20 70.57 0.20ZM70.20-8.22L70.20-8.22Q68.75-8.22 68.48-6.31L68.48-6.31L71.80-6.31L71.80-6.56Q71.82-7.35 71.40-7.79Q70.98-8.22 70.20-8.22ZM83.83-3.78L83.83-3.78Q83.83-4.53 83.30-4.95Q82.76-5.37 81.43-5.82Q80.09-6.27 79.24-6.69L79.24-6.69Q76.47-8.05 76.47-10.42L76.47-10.42Q76.47-11.60 77.16-12.50Q77.85-13.41 79.11-13.91Q80.37-14.41 81.94-14.41L81.94-14.41Q83.48-14.41 84.69-13.87Q85.91-13.32 86.58-12.31Q87.26-11.30 87.26-10L87.26-10L83.84-10Q83.84-10.87 83.31-11.35Q82.77-11.83 81.87-11.83L81.87-11.83Q80.95-11.83 80.42-11.42Q79.88-11.02 79.88-10.39L79.88-10.39Q79.88-9.84 80.47-9.40Q81.05-8.96 82.53-8.48Q84.00-8.01 84.95-7.46L84.95-7.46Q87.26-6.13 87.26-3.80L87.26-3.80Q87.26-1.93 85.85-0.87Q84.44 0.20 81.99 0.20L81.99 0.20Q80.26 0.20 78.86-0.42Q77.46-1.04 76.75-2.12Q76.04-3.20 76.04-4.61L76.04-4.61L79.48-4.61Q79.48-3.47 80.07-2.92Q80.66-2.38 81.99-2.38L81.99-2.38Q82.84-2.38 83.33-2.75Q83.83-3.12 83.83-3.78ZM92.08-15L92.08-9.43Q93.13-10.76 94.78-10.76L94.78-10.76Q96.52-10.76 97.41-9.73Q98.30-8.69 98.32-6.67L98.32-6.67L98.32 0L95.02 0L95.02-6.59Q95.02-7.43 94.68-7.83Q94.34-8.22 93.52-8.22L93.52-8.22Q92.50-8.22 92.08-7.58L92.08-7.58L92.08 0L88.79 0L88.79-15L92.08-15ZM109.39 0L106.10 0Q105.93-0.32 105.79-0.95L105.79-0.95Q104.88 0.20 103.25 0.20L103.25 0.20Q101.76 0.20 100.71-0.71Q99.67-1.61 99.67-2.98L99.67-2.98Q99.67-4.70 100.94-5.58Q102.21-6.46 104.63-6.46L104.63-6.46L105.64-6.46L105.64-7.01Q105.64-8.47 104.38-8.47L104.38-8.47Q103.21-8.47 103.21-7.31L103.21-7.31L99.92-7.31Q99.92-8.85 101.23-9.80Q102.53-10.76 104.55-10.76Q106.57-10.76 107.74-9.78Q108.92-8.79 108.95-7.07L108.95-7.07L108.95-2.39Q108.96-0.94 109.39-0.17L109.39-0.17L109.39 0ZM104.04-2.15L104.04-2.15Q104.66-2.15 105.06-2.41Q105.47-2.68 105.64-3.01L105.64-3.01L105.64-4.70L104.69-4.70Q102.97-4.70 102.97-3.15L102.97-3.15Q102.97-2.71 103.27-2.43Q103.57-2.15 104.04-2.15ZM117.22-10.64L117.16-7.59L116.07-7.67Q114.52-7.67 114.08-6.69L114.08-6.69L114.08 0L110.79 0L110.79-10.57L113.88-10.57L113.98-9.21Q114.81-10.76 116.30-10.76L116.30-10.76Q116.83-10.76 117.22-10.64L117.22-10.64ZM123.27 0.20L123.27 0.20Q120.84 0.20 119.34-1.25Q117.83-2.71 117.83-5.03L117.83-5.03L117.83-5.30Q117.83-6.92 118.43-8.16Q119.03-9.40 120.19-10.08Q121.34-10.76 122.92-10.76L122.92-10.76Q125.15-10.76 126.44-9.38Q127.72-8.00 127.72-5.53L127.72-5.53L127.72-4.25L121.18-4.25Q121.36-3.36 121.95-2.85Q122.55-2.34 123.50-2.34L123.50-2.34Q125.06-2.34 125.94-3.44L125.94-3.44L127.44-1.66Q126.83-0.81 125.70-0.31Q124.57 0.20 123.27 0.20ZM122.90-8.22L122.90-8.22Q121.46-8.22 121.18-6.31L121.18-6.31L124.50-6.31L124.50-6.56Q124.52-7.35 124.10-7.79Q123.68-8.22 122.90-8.22Z"></path></g></g></svg>